<svg width="270" height="216" viewBox="0 0 270 216" fill="none" xmlns="http://www.w3.org/2000/svg">
<path d="M263.076 116.056C262.948 115.934 262.857 115.836 239.398 93.921C241.924 85.676 243.22 77.1028 243.244 68.4787C243.244 30.7211 213.647 0 177.274 0C164.657 0.00103494 152.322 3.73106 141.814 10.7225C133.642 16.1579 126.751 23.3116 121.622 31.6854C116.496 23.3105 109.607 16.1565 101.436 10.7225C90.9271 3.73272 78.5923 0.00284769 65.9763 0C29.5964 0 0 30.7211 0 68.4787C0 126.125 75.3745 180.732 107.561 204.045C110.334 206.053 112.73 207.792 114.723 209.275C115.506 209.855 116.357 210.337 117.258 210.709C121.635 214.07 126.979 215.926 132.495 216H132.885C135.8 216.056 138.697 215.521 141.4 214.427C144.103 213.333 146.558 211.703 148.616 209.635L148.841 209.409C150.024 208.408 151.09 207.407 152.12 206.437C154.058 204.606 155.893 202.904 157.465 202.281H157.526C160.83 200.975 163.457 199.938 167.626 202.891L175.153 209.916L175.427 210.166C183.917 217.489 196.247 217.208 206.102 209.513C216.39 201.476 219.937 188.58 214.726 178.145C212.739 174.172 210.003 171.249 207.589 168.673C205.761 166.739 204.06 164.908 203.439 163.333V163.266C201.945 159.47 200.757 156.468 205.742 151.061L205.925 150.872C209.619 146.972 213.696 145.8 218.407 147.289C219.998 147.796 221.924 149.438 223.96 151.183C227.044 153.819 230.877 157.103 236.149 158.756C247.425 162.29 259.383 157.457 265.916 146.728C272.261 136.262 271.146 124.233 263.076 116.056ZM88.7038 175.325L86.1379 173.318C74.6431 164.163 62.228 153.508 50.8734 141.809C24.8851 115.049 11.7081 90.3814 11.7081 68.5031C11.7081 37.2083 36.0508 11.7478 65.9519 11.7478C86.784 11.7478 105.446 23.9044 114.662 43.4819C115.276 44.8052 116.255 45.9252 117.484 46.71C118.713 47.4948 120.14 47.9117 121.598 47.9117C123.055 47.9117 124.482 47.4948 125.711 46.71C126.94 45.9252 127.919 44.8052 128.533 43.4819C137.749 23.9166 156.411 11.7478 177.249 11.7478C207.169 11.7478 231.493 37.2083 231.493 68.5031C231.493 70.5862 231.404 72.655 231.225 74.7096C230.939 78.113 230.426 81.4933 229.689 84.8279L227.537 82.8201C187.117 45.0809 187.019 44.9832 186.861 44.8612C178.151 37.3609 166.09 37.0863 156.131 44.1532C145.898 51.4277 141.912 63.7125 146.221 74.7218C148.238 79.8847 151.773 83.4853 154.613 86.378C156.49 88.2943 158.27 90.1007 158.879 91.6569C160.708 96.2523 159.806 100.414 156.186 104.363C156.119 104.43 156.064 104.497 156.003 104.564C150.981 109.922 147.903 108.952 144.008 107.719H143.941C142.332 107.213 140.388 105.626 138.334 103.948C135.597 101.714 132.495 99.1877 128.393 97.4789C117.642 92.9995 105.038 97.4362 97.7485 108.275C90.7639 118.649 91.3612 130.989 99.2296 138.959C99.5465 139.276 99.8756 139.569 100.205 139.905L116.149 154.796C119.367 158.756 118.52 161.454 117.447 164.841V164.902C116.935 166.519 115.35 168.466 113.674 170.529C112.778 171.627 111.846 172.762 110.944 174.019L110.73 174.263C109.689 175.466 108.78 176.778 108.018 178.175C107.72 178.725 107.445 179.28 107.195 179.847C106.946 180.415 106.726 180.995 106.531 181.581C105.836 183.64 105.454 185.791 105.398 187.964C100.321 184.241 94.6646 180.031 88.7038 175.325ZM255.909 140.595C251.368 148.058 244.329 149.004 239.642 147.54C236.649 146.6 234.156 144.488 231.554 142.242C228.714 139.801 225.782 137.305 221.924 136.079C220.35 135.58 218.732 135.237 217.091 135.053C209.856 134.248 203.03 136.884 197.484 142.706C197.399 142.792 197.307 142.877 197.24 142.956C189.957 150.774 189.817 157.768 190.963 162.729C191.364 164.368 191.889 165.974 192.535 167.532V167.599C193.979 171.261 196.551 174.001 199.038 176.656C201.086 178.84 203.018 180.928 204.243 183.369C206.516 187.915 205.736 194.897 198.892 200.243C192.334 205.363 186.428 204.136 183.1 201.292L175.104 193.823L174.823 193.621C167.351 188.129 160.927 188.855 156.472 190.222C155.253 190.6 154.156 191.028 153.248 191.388H153.187C149.53 192.828 146.793 195.403 144.136 197.899C143.106 198.864 142.137 199.773 141.119 200.621L140.881 200.816L140.4 201.317L140.29 201.414C139.327 202.362 138.183 203.105 136.927 203.599C135.67 204.093 134.326 204.328 132.977 204.289H132.757C129.253 204.362 125.51 202.727 122.451 199.797L122.347 199.7L122.183 199.541C119.135 196.715 117.307 193.145 117.154 189.722V189.502C117.015 188.132 117.16 186.748 117.579 185.436C117.999 184.125 118.684 182.914 119.592 181.88L120.049 181.367L120.232 181.117C121.006 180.043 121.847 179.005 122.737 177.913C125.029 175.087 127.406 172.164 128.588 168.417V168.362C129.953 164.041 132.495 156.004 124.87 146.96L124.645 146.697L108.189 131.306C107.97 131.111 107.762 130.904 107.579 130.696C104.477 127.553 102.826 121.731 107.482 114.829C111.017 109.581 115.631 107.506 119.672 107.506C121.123 107.498 122.561 107.78 123.901 108.336C126.431 109.385 128.619 111.173 130.941 113.065C133.757 115.366 136.676 117.746 140.418 118.93H140.485C145.044 120.376 154.503 123.379 164.621 112.553C164.706 112.455 164.791 112.363 164.871 112.266C171.49 104.997 173.233 96.1668 169.777 87.3911C168.29 83.6196 165.584 80.8612 162.969 78.2004C160.531 75.7593 158.27 73.4097 157.124 70.4865C155.338 65.9095 155.783 58.7693 162.908 53.704C167.174 50.6527 173.714 49.0537 179.163 53.704C180.589 55.0283 202.811 75.7715 215.287 87.4216L219.553 91.4067L225.867 97.3019L235.01 105.846C247.431 117.441 254.086 123.672 254.836 124.38C259.791 129.476 258.651 136.091 255.909 140.595Z" fill="#191C20"/>
</svg>
